<svg xmlns="http://www.w3.org/2000/svg" xmlns:svgjs="http://svgjs.com/svgjs" xmlns:xlink="http://www.w3.org/1999/xlink" width="288" height="288"><svg xmlns="http://www.w3.org/2000/svg" width="288" height="288" enable-background="new 0 0 4000 694.748" viewBox="0 0 4000 694.748"><path fill="#fff" d="M20.043 339.711c-8.558-10.73-24.908 2.618-18.649 13.923C10.272 368.515 33.966 350.377 20.043 339.711zM3979.957 339.711c8.558-10.73 24.908 2.618 18.649 13.923C3989.728 368.515 3966.034 350.377 3979.957 339.711zM846.292 137.125c27.782-1.341 59.077 18.266 60.802 48.028 1.852 24.397-20.629 38.895-32.189 57.48 44.196-4.343 84.56-44.324 78.748-90.5-4.701-65.655-134.287-164.094-244.036 64.57 3.181-138.132-138.521-136.612-173.208-61.504-19.096 38.065-4.982 92.416 35.766 109.66 34.744 16.605 85.071-15.584 73.958-55.82-4.407-24.525-32.38-33.722-54.159-26.633 8.303 7.281 17.563 13.348 25.1 21.395 10.985 18.777-13.22 42.344-31.997 32.955-59.275-27.744-.473-126.68 64.442-91.841 85.518 44.758 26.684 286.878-153.792 252.594-82.197-17.602-52.959-120.473 5.556-101.613 11.368 5.684 20.437 14.881 30.976 21.715-12.486-78.116-87.792-71.442-118.984-42.663-61.817 54.172-18.764 196.736 183.746 139.869C476.521 515.991 255.566 453.848 154.1 384.354c-167.313-123.065 9.727-225.847 32.508-130.672 7.856 22.034-6.77 42.663-11.879 63.42 24.972-13.476 44.451-39.47 44.132-68.657 8.194-116.941-174.811-115.382-189.302 6.131C8.49 372.341 177.782 491.721 366.842 505.383 737.322 527.762 684.28 151.667 846.292 137.125zM3153.708 137.125c-27.782-1.341-59.077 18.266-60.802 48.028-1.852 24.397 20.629 38.895 32.189 57.48-44.196-4.343-84.56-44.324-78.748-90.5 4.701-65.655 134.287-164.094 244.036 64.57-3.181-138.132 138.521-136.612 173.208-61.504 19.096 38.065 4.982 92.416-35.766 109.66-34.744 16.605-85.071-15.584-73.958-55.82 4.407-24.525 32.381-33.722 54.159-26.633-8.302 7.281-17.563 13.348-25.1 21.395-10.985 18.777 13.22 42.344 31.997 32.955 59.275-27.744.473-126.68-64.442-91.841-85.518 44.758-26.684 286.878 153.792 252.594 82.197-17.602 52.959-120.473-5.556-101.613-11.368 5.684-20.438 14.881-30.976 21.715 12.486-78.116 87.792-71.442 118.984-42.663 61.817 54.172 18.764 196.736-183.746 139.869 120.498 101.172 341.453 39.029 442.918-30.465 167.313-123.065-9.727-225.847-32.508-130.672-7.856 22.034 6.77 42.663 11.879 63.42-24.972-13.476-44.451-39.47-44.132-68.657-8.194-116.941 174.811-115.382 189.302 6.131 21.07 117.765-148.223 237.145-337.282 250.807C3262.678 527.762 3315.72 151.667 3153.708 137.125zM60.854 436.023c6.451-4.151 11.688-9.772 17.244-15.009C52.117 380.273 29.163 431.82 60.854 436.023zM3939.146 436.023c-6.45-4.151-11.688-9.772-17.244-15.009C3947.883 380.273 3970.836 431.82 3939.146 436.023zM146.82 469.042c-15.073-16.478-40.364 11.049-23.886 25.291C138.325 511.705 164.958 483.284 146.82 469.042zM3853.18 469.042c15.073-16.478 40.364 11.049 23.886 25.291C3861.675 511.705 3835.042 483.284 3853.18 469.042zM201.426 529.332c-2.235 12.454 11.241 16.925 18.777 23.248 9.836-5.94 27.08-15.392 19.607-29.57C235.084 500.784 198.233 506.213 201.426 529.332zM3798.574 529.332c2.235 12.454-11.241 16.925-18.777 23.248-9.835-5.94-27.08-15.392-19.607-29.57C3764.916 500.784 3801.767 506.213 3798.574 529.332z" class="color010101 svgShape"/><path fill="#fff" d="M289.243 211.019c-3.641 10.091-8.047 20.054-10.091 30.592 12.39 19.416 39.661 27.59 60.418 17.308 2.044-8.047 3.768-16.158 5.109-24.397 7.983 4.088 15.967 8.239 24.014 12.199 19.032-13.093 28.165-37.171 21.715-59.524-6.195-3.385-12.582-6.514-19.096-9.389 3.193-6.323 6.131-12.837 8.75-19.416-9.452-21.331-36.468-36.787-59.141-27.016-3.577 9.005-5.109 18.713-7.217 28.102-9.325-4.854-18.202-13.157-29.57-11.368-19.863 14.115-32.572 43.43-15.584 64.57C273.724 212.232 284.07 211.402 289.243 211.019zM329.99 182.215c6.514 3.832 16.861 13.476 10.155 21.396-2.81 8.175-18.713 5.11-19.863-3.129C315.493 192.242 325.584 187.58 329.99 182.215zM3710.757 211.019c3.64 10.091 8.047 20.054 10.091 30.592-12.39 19.416-39.662 27.59-60.418 17.308-2.044-8.047-3.768-16.158-5.109-24.397-7.984 4.088-15.967 8.239-24.014 12.199-19.032-13.093-28.166-37.171-21.715-59.524 6.195-3.385 12.582-6.514 19.096-9.389-3.193-6.323-6.131-12.837-8.75-19.416 9.452-21.331 36.468-36.787 59.141-27.016 3.577 9.005 5.109 18.713 7.217 28.102 9.325-4.854 18.202-13.157 29.571-11.368 19.863 14.115 32.572 43.43 15.583 64.57C3726.276 212.232 3715.93 211.402 3710.757 211.019zM3670.01 182.215c-6.514 3.832-16.861 13.476-10.155 21.396 2.81 8.175 18.713 5.11 19.863-3.129C3684.507 192.242 3674.416 187.58 3670.01 182.215zM342.764 523.968c7.025 10.602 14.626 20.757 23.12 30.145-38.027 42.401 5.25 83.417-68.274 97.397 43.43 27.271 101.165 3.385 126.521-37.682 8.175 10.921 17.372 20.948 27.335 30.145 1.373-54.574 9.197-82.491 62.079-95.162C433.136 481.675 406.146 536.492 342.764 523.968zM434.477 558.264c-37.809 23.184-51.86 69.998-90.244 92.799 17.052-22.8 27.718-50.263 49.305-69.423-5.812.128-17.5.447-23.375.575 18.138-22.481 46.559-31.614 74.661-31.359-6.451-5.62-12.901-11.368-19.352-17.18 19.352-1.022 38.64 1.086 57.289 6.514C466.411 545.491 448.656 548.045 434.477 558.264zM3657.236 523.968c-7.025 10.602-14.625 20.757-23.12 30.145 38.027 42.401-5.25 83.417 68.274 97.397-43.429 27.271-101.166 3.385-126.521-37.682-8.175 10.921-17.372 20.948-27.335 30.145-1.373-54.574-9.197-82.491-62.079-95.162C3566.864 481.675 3593.854 536.492 3657.236 523.968zM3565.523 558.264c37.809 23.184 51.86 69.998 90.244 92.799-17.052-22.8-27.718-50.263-49.305-69.423 5.812.128 17.5.447 23.375.575-18.138-22.481-46.559-31.614-74.661-31.359 6.451-5.62 12.901-11.368 19.352-17.18-19.352-1.022-38.64 1.086-57.289 6.514C3533.589 545.491 3551.344 548.045 3565.523 558.264zM2000 435.005c-8.68 4.728-16.641 10.694-23.452 17.814-50.972 50.277-41.035 143.065 23.452 185.337 64.487-42.272 74.424-135.059 23.452-185.337C2016.641 445.699 2008.68 439.733 2000 435.005zM2000 591.256c-21.39-27.489-27.136-67.726-9.081-98.583 2.433-4.78 5.509-9.118 9.081-12.977 3.571 3.859 6.647 8.197 9.081 12.977C2027.136 523.531 2021.39 563.767 2000 591.256zM517.121 590.645c8.494 28.357 47.453 25.675 57.992 52.243-4.918 8.75-9.9 17.372-14.753 26.058 58.055-14.409 77.062-109.187-14.817-119.815 49.938-44.688 163.046-73.128 233.051 8.75-165.129-53.981-152.17 99.211-33.339 76.066 59.514 37.228 89.402 3.035 84.624-21.395-3.704-26.441-32.317-37.234-43.43-59.78 109.749 12.844 137.857-70.631 133.61-121.347-10.729 21.779-20.565 46.048-42.791 58.694-30.273 20.948-75.746 12.965-95.928-18.138-56.037-79.687 66.454-255.034 359.572-48.731-223.19-42.025-215.552 275.785-39.151 228.644 44.068-9.835 83.73-56.842 67.763-103.081-12.556-46.572-100.565-70.318-104.933 18.649 11.368-13.923 22.481-34.488 43.877-30.784 23.12-.256 35.702 27.399 27.399 47.006-14.689 39.981-71.275 51.796-103.656 26.313-62.13-49.223-24.915-175.769 95.481-161.967 107.942 11.879 219.064 145.311 389.398 87.69 121.59-37.669 262.213-226.045 361.616-163.947 25.483 15.328 41.641 51.605 24.716 78.684-10.794 18.394-32.38 24.27-50.519 32.572 40.811 9.708 89.988-6.897 105.891-48.22 25.739-60.738-34.615-129.267-96.95-125.754-68.466 1.916-123.2 48.092-174.741 87.881 26.313-38.256 40.045-92.16 11.496-133.099-.511-1.597-1.533-4.662-2.044-6.259 1.603 5.01 14.914 10.415 19.335 12.294 16.01 6.804 38.846 9.194 54.118-1.13 13.213-8.932 9.308-30.067 3.754-42.741-5.136-11.721-13.628-20.28-22.532-29.146-5.699-5.675-6.754-11.283-10.126-18.519-5.095-10.934-12.513-20.628-21.561-28.587-19.064-16.771-44.126-25.368-68.892-29.142-50.15-7.643-109.578 1.168-151.919 30.491-20.729 14.356-42.16 41.928-28.843 68.479 10.091 20.118 34.679 23.503 50.455 37.234 11.624 12.071-4.471 25.292-7.792 36.979 9.069-4.279 18.138-8.814 27.207-13.284-42.472 107.814 101.862 131.566 101.357 56.97 2.363-20.501-16.286-32.125-32.509-39.151 5.301 12.454 18.458 24.844 11.56 39.215-7.473 21.842-40.364 24.653-52.435 5.556-16.733-22.992-6.131-56.714 15.903-72.234 55.405-44.234 163.111 22.117 78.365 140.572-36.021 48.986-94.587 87.562-157.496 82.261-216.797-24.902-92.863-240.907-19.48-103.401 7.536-27.08-.064-58.758-24.78-74.469-81.309-61.178-192.521 69.251-76.896 154.942 38.703 30.848 88.52 42.152 136.995 44.004-229.788 96.503-585.815-320.332-411.943-399.361 44.937-23.094 130.851 33.224 42.344 113.875 50.136-7.281 88.52-59.907 70.957-109.596-14.37-55.181-83.283-75.044-132.014-54.67-83.493 30.573-96.133 162.58-39.597 225.132-146.728-97.449-427.559 45.18-331.598 209.484C606.241 472.254 502.4 533.58 517.121 590.645zM796.987 582.661c9.516 11.752 25.292 24.972 19.416 41.961-10.347 22.226-38.64 10.346-56.65 6.514C776.294 618.491 790.6 602.971 796.987 582.661zM783.511 575.317c-1.916 21.268-16.797 37.809-36.851 44.132-1.916-8.814-9.261-18.33-5.237-27.591 6.45-8.047 14.242-14.881 20.948-22.801-48.795 6.764-32.138 38.435-27.718 55.692C620.647 620.078 663.106 519.349 783.511 575.317zM1749.821 209.869c10.794 11.049 26.249 27.846 15.903 43.941-13.859 17.436-37.362 7.345-54.287.766C1730.022 244.741 1738.58 226.091 1749.821 209.869zM1488.157 185.344c7.664 1.405 23.056 4.279 30.72 5.684-4.471 4.407-9.005 8.686-13.476 12.965 11.177 4.279 22.098 9.197 32.572 15.072-5.237.256-15.583.83-20.821 1.086 9.58 8.494 17.819 18.394 22.226 30.528C1519.005 232.095 1481.323 219.449 1488.157 185.344zM1607.333 227.624c-18.649 4.471-35.894 13.348-50.008 26.377 12.282-68.785-32.725-73.581-60.354-80.217 64.793-55.111 189.353-62.334 232.732 8.814C1667.591 163.297 1602.153 162.505 1607.333 227.624zM1686.911 249.595c-19.735-13.987-42.855-21.268-66.613-24.589-.064-10.346-2.427-23.759 8.366-29.89 23.057-16.542 52.818-11.496 78.876-6.706l-.575 5.301C1679.311 197.926 1673.691 228.774 1686.911 249.595zM1691.829 218.747c6.706-9.644 17.819-16.222 20.31-28.613 5.62 2.81 16.797 8.367 22.353 11.177-1.597 20.757-17.053 34.616-33.786 44.707C1697.258 237.396 1689.083 228.774 1691.829 218.747zM535.771 562.288c10.857-1.214 42.28.766 21.14 16.925 10.027 4.79 19.991 9.836 29.635 15.328-5.365.192-16.159.575-21.523.766 10.474 7.856 18.968 17.883 22.353 30.784C567.896 606.803 532.194 595.435 535.771 562.288zM2220.387 250.167c.087 1.756.343 3.465.793 5.103 3.521 12.796 19.859 18.737 31.532 19.886 18.123 1.784 37.395-5.36 50.733-17.578-.511 1.597-1.533 4.662-2.044 6.259-28.548 40.939-14.817 94.843 11.496 133.099-51.541-39.789-106.275-85.965-174.74-87.881-62.334-3.513-122.689 65.017-96.95 125.754 15.903 41.322 65.081 57.927 105.891 48.22-18.138-8.303-39.725-14.179-50.519-32.572-16.925-27.08-.767-63.356 24.717-78.684 99.402-62.098 240.025 126.278 361.615 163.947 170.334 57.621 281.456-75.81 389.398-87.69 120.396-13.802 157.611 112.745 95.481 161.967-32.381 25.483-88.967 13.668-103.656-26.313-8.303-19.607 4.279-47.262 27.399-47.006 21.396-3.704 32.509 16.861 43.877 30.784-4.368-88.967-92.377-65.221-104.934-18.649-15.967 46.24 23.695 93.246 67.763 103.081 176.401 47.141 184.04-270.669-39.15-228.644 293.118-206.304 415.609-30.956 359.572 48.731-20.182 31.103-65.655 39.087-95.928 18.138-22.226-12.646-32.061-36.915-42.791-58.694-4.247 50.717 23.861 134.191 133.61 121.347-11.113 22.545-39.725 33.339-43.43 59.78-4.778 24.43 25.109 58.624 84.624 21.395 118.831 23.145 131.79-130.046-33.339-76.066 70.005-81.878 183.113-53.438 233.051-8.75-91.879 10.627-72.872 105.406-14.817 119.815-4.854-8.686-9.835-17.308-14.753-26.058 10.539-26.569 49.497-23.886 57.992-52.243 14.721-57.065-89.12-118.391-201.373-91.011 95.96-164.305-184.87-306.933-331.598-209.484 56.535-62.551 43.896-194.558-39.597-225.132-48.731-20.374-117.643-.511-132.014 54.67-17.563 49.689 20.821 102.315 70.957 109.596-88.507-80.651-2.593-136.969 42.344-113.875 173.872 79.029-182.156 495.864-411.943 399.361 48.476-1.852 98.292-13.157 136.995-44.004 115.625-85.69 4.413-216.12-76.896-154.942-24.717 15.711-32.317 47.389-24.781 74.469 73.383-137.506 197.317 78.499-19.479 103.401-62.909 5.301-121.475-33.275-157.496-82.261-84.745-118.454 22.96-184.806 78.365-140.572 22.034 15.52 32.636 49.242 15.903 72.234-12.071 19.096-44.963 16.286-52.435-5.556-6.897-14.37 6.259-26.76 11.56-39.215-16.222 7.025-34.871 18.649-32.509 39.151-.504 74.597 143.829 50.845 101.357-56.97 9.069 4.471 18.138 9.005 27.208 13.284-3.321-11.688-19.416-24.908-7.792-36.979 15.775-13.731 40.364-17.116 50.455-37.234 37.886-97.422-239.722-155.516-276.098-28.098-2.54 8.897-12.39 14.139-18.108 20.816C2227.354 222.278 2219.715 236.626 2220.387 250.167zM3183.597 624.622c-5.876-16.989 9.9-30.209 19.416-41.961 6.387 20.31 20.693 35.83 37.235 48.475C3222.237 634.969 3193.944 646.848 3183.597 624.622zM3265.347 624.75c4.42-17.257 21.076-48.929-27.718-55.692 6.706 7.92 14.498 14.753 20.948 22.801 4.024 9.261-3.321 18.777-5.237 27.591-20.054-6.323-34.935-22.864-36.851-44.132C3336.894 519.349 3379.353 620.078 3265.347 624.75zM3464.229 562.288c3.577 33.147-32.125 44.515-51.604 63.803 3.385-12.901 11.879-22.928 22.354-30.784-5.365-.192-16.158-.575-21.523-.766 9.644-5.492 19.607-10.538 29.634-15.328C3421.95 563.054 3453.372 561.075 3464.229 562.288zM2379.702 225.006c-23.759 3.321-46.878 10.602-66.614 24.589 13.221-20.821 7.601-51.669-20.054-55.884l-.575-5.301c26.058-4.79 55.82-9.836 78.876 6.706C2382.129 201.247 2379.766 214.659 2379.702 225.006zM2460.622 250.68c4.407-12.135 12.646-22.034 22.226-30.528-5.237-.255-15.584-.83-20.821-1.086 10.474-5.876 21.396-10.794 32.572-15.072-4.471-4.279-9.005-8.558-13.476-12.965 7.664-1.405 23.056-4.279 30.72-5.684C2518.677 219.449 2480.995 232.095 2460.622 250.68zM2503.03 173.784c-27.629 6.636-72.636 11.432-60.354 80.217-14.115-13.029-31.359-21.906-50.008-26.377 5.18-65.119-60.258-64.327-122.369-45.026C2313.676 111.45 2438.236 118.673 2503.03 173.784zM2287.861 190.134c2.491 12.39 13.604 18.969 20.31 28.613 2.747 10.027-5.428 18.649-8.877 27.271-16.733-10.091-32.189-23.95-33.786-44.707C2271.064 198.501 2282.24 192.944 2287.861 190.134zM2250.179 209.869c11.24 16.222 19.799 34.871 38.384 44.707-16.925 6.578-40.427 16.669-54.287-.766C2223.93 237.715 2239.386 220.918 2250.179 209.869zM743.658 101.295c7.281-11.113-5.301-29.443-18.394-27.974-15.648-1.916-28.549 20.629-16.733 32.253C716.387 118.092 739.123 115.729 743.658 101.295zM3256.342 101.295c-7.281-11.113 5.301-29.443 18.394-27.974 15.647-1.916 28.549 20.629 16.733 32.253C3283.614 118.092 3260.877 115.729 3256.342 101.295zM800.052 60.165c15.584 16.542 41.386-11.624 23.695-25.547C808.738 17.437 780.956 45.667 800.052 60.165zM3199.948 60.165c-15.583 16.542-41.386-11.624-23.695-25.547C3191.261 17.437 3219.044 45.667 3199.948 60.165zM915.716 44.709c-1.724-21.715-38.384-9.708-27.08 8.878C895.023 68.02 919.803 61.314 915.716 44.709zM3084.284 44.709c1.725-21.715 38.384-9.708 27.08 8.878C3104.977 68.02 3080.197 61.314 3084.284 44.709zM986.034 81.241c-1.15-17.5-30.528-11.241-22.929 5.94C968.023 97.974 987.886 94.397 986.034 81.241zM3013.966 81.241c1.15-17.5 30.529-11.241 22.929 5.94C3031.977 97.974 3012.114 94.397 3013.966 81.241zM1082.729 670.224c-11.113 5.684-18.841 23.695-1.022 24.525C1098.248 694.11 1090.009 676.738 1082.729 670.224zM2917.271 670.224c11.113 5.684 18.841 23.695 1.022 24.525C2901.752 694.11 2909.991 676.738 2917.271 670.224zM1131.778 679.548c7.025 14.37 29.443 7.025 26.122-9.133C1152.216 652.979 1124.37 662.432 1131.778 679.548zM2868.222 679.548c-7.025 14.37-29.443 7.025-26.122-9.133C2847.784 652.979 2875.63 662.432 2868.222 679.548z" class="color010101 svgShape"/><path fill="#fff" d="M1215.636 621.493c-11.368-2.363-16.35 9.772-22.481 16.478C1228.499 677.089 1239.171 624.724 1215.636 621.493zM2784.364 621.493c11.368-2.363 16.35 9.772 22.481 16.478C2771.501 677.089 2760.829 624.724 2784.364 621.493zM1252.168 551.047c-12.262-15.584-38.384 1.724-31.039 19.288C1236.444 600.442 1271.839 568.272 1252.168 551.047zM2747.832 551.047c12.262-15.584 38.384 1.724 31.04 19.288C2763.556 600.442 2728.161 568.272 2747.832 551.047zM1375.623 239.887c8.75 10.027 17.563 19.927 27.335 28.932.812-82.612 32.017-85.94 61.824-95.481-80.92-64.359-104.819-13.259-171.675-23.95 7.6 10.155 15.647 19.926 24.333 29.123-18.905 21.076-17.18 50.327-26.377 75.363-6.131 17.117-26.249 18.713-40.939 23.439C1293.362 304.776 1349.246 278.782 1375.623 239.887zM1345.286 205.654c-5.94.511-17.883 1.533-23.886 2.044 14.434-17.116 34.425-28.996 57.161-29.954 2.172-6.068 4.279-12.199 6.323-18.394 16.67-.447 33.466 1.213 49.561 5.812-95.788 23.637-83.065 78.965-138.719 109.66C1313.097 252.341 1324.21 225.325 1345.286 205.654zM2624.377 239.887c-8.75 10.027-17.563 19.927-27.335 28.932-.812-82.612-32.017-85.94-61.823-95.481 80.92-64.359 104.819-13.259 171.675-23.95-7.6 10.155-15.647 19.926-24.333 29.123 18.905 21.076 17.18 50.327 26.377 75.363 6.131 17.117 26.249 18.713 40.938 23.439C2706.638 304.776 2650.754 278.782 2624.377 239.887zM2654.714 205.654c5.939.511 17.883 1.533 23.886 2.044-14.434-17.116-34.425-28.996-57.161-29.954-2.172-6.068-4.279-12.199-6.323-18.394-16.67-.447-33.467 1.213-49.561 5.812 95.788 23.637 83.065 78.965 138.719 109.66C2686.903 252.341 2675.79 225.325 2654.714 205.654zM1430.102 130.993c24.27 24.27 61.568 18.138 88.137 1.277-.894-2.171-2.746-6.451-3.64-8.622-15.648 8.494-37.043 12.39-49.433-3.768-18.585-30.528 9.325-69.807-13.667-99.377-20.118-29.443-65.847-25.675-86.221 1.724C1442.415 26.59 1387.445 94.283 1430.102 130.993zM1428.569 39.791c2.874-2.044 8.622-6.068 11.496-8.047.447 34.744 2.682 69.488 17.436 101.677-29.89-29.443-19.735-76.13-42.791-109.66C1419.372 29.061 1424.034 34.362 1428.569 39.791zM2569.898 130.993c-24.27 24.27-61.568 18.138-88.137 1.277.894-2.171 2.746-6.451 3.64-8.622 15.648 8.494 37.043 12.39 49.433-3.768 18.585-30.528-9.325-69.807 13.667-99.377 20.118-29.443 65.847-25.675 86.221 1.724C2557.585 26.59 2612.555 94.283 2569.898 130.993zM2571.431 39.791c-2.874-2.044-8.622-6.068-11.496-8.047-.447 34.744-2.682 69.488-17.436 101.677 29.89-29.443 19.735-76.13 42.791-109.66C2580.628 29.061 2575.966 34.362 2571.431 39.791zM1409.6 573.209c-5.876 3.96-11.879 7.792-18.011 11.432 4.854 9.836 9.261 19.927 12.837 30.337 12.391 1.916 23.184-5.109 33.53-10.858C1444.408 588.218 1430.166 557.051 1409.6 573.209zM2590.4 573.209c5.876 3.96 11.879 7.792 18.011 11.432-4.854 9.836-9.261 19.927-12.837 30.337-12.39 1.916-23.184-5.109-33.531-10.858C2555.592 588.218 2569.834 557.051 2590.4 573.209zM1528.266 570.974c-1.916 2.938-5.812 8.814-7.728 11.751-17.116-6.642-29.762 17.116-14.178 26.569.192 9.58 6.642 15.264 14.434 19.607 9.644-5.748 19.927-10.346 30.465-14.434-.767-11.688-4.407-22.865-7.025-34.169C1540.273 577.935 1532.289 573.273 1528.266 570.974zM1522.454 605.207c-2.746-8.878.319-11.752 9.261-8.75C1534.333 605.462 1531.203 608.4 1522.454 605.207zM2471.734 570.974c1.916 2.938 5.812 8.814 7.728 11.751 17.116-6.642 29.762 17.116 14.178 26.569-.192 9.58-6.642 15.264-14.434 19.607-9.644-5.748-19.927-10.346-30.464-14.434.767-11.688 4.407-22.865 7.025-34.169C2459.728 577.935 2467.711 573.273 2471.734 570.974zM2477.546 605.207c2.746-8.878-.319-11.752-9.261-8.75C2465.667 605.462 2468.797 608.4 2477.546 605.207zM1671.775 550.345c1.086-3.704 3.193-11.049 4.279-14.753-9.899-5.684-19.352-16.095-31.87-14.37-3.96 5.684-7.153 11.815-9.644 18.33-21.906-23.758-47.773 33.977-15.392 34.105-18.457 25.866 36.149 43.749 36.085 13.221 4.215 1.469 12.709 4.407 16.925 5.876C1681.419 580.554 1690.168 559.158 1671.775 550.345zM1653.126 569.76c-8.111 8.111-20.565-5.173-12.646-13.284C1648.144 546.704 1660.279 562.224 1653.126 569.76zM2328.225 550.345c-1.086-3.704-3.194-11.049-4.279-14.753 9.899-5.684 19.352-16.095 31.87-14.37 3.96 5.684 7.153 11.815 9.644 18.33 21.906-23.758 47.773 33.977 15.392 34.105 18.458 25.866-36.149 43.749-36.085 13.221-4.215 1.469-12.709 4.407-16.925 5.876C2318.581 580.554 2309.832 559.158 2328.225 550.345zM2346.875 569.76c8.111 8.111 20.565-5.173 12.646-13.284C2351.856 546.704 2339.721 562.224 2346.875 569.76zM1813.879 485.136c3.321-6.195 6.323-12.518 9.069-18.969-9.772-20.885-35.446-36.404-58.438-27.846-4.598 8.878-5.684 18.969-7.728 28.549-9.516-4.854-19.224-9.389-29.123-13.412-18.202 16.414-33.977 43.494-17.18 66.55 5.429-.383 16.35-1.086 21.778-1.469-3.129 10.985-11.624 21.97-8.558 33.594 13.732 18.202 37.81 21.204 58.694 16.35 1.469-8.558 2.874-17.18 4.279-25.802 8.047 3.576 15.903 7.472 24.269 10.282 21.076-10.027 27.654-36.66 22.417-57.8C1826.972 491.523 1820.457 488.202 1813.879 485.136zM1762.913 507.937c-4.79-8.686 6.898-16.861 15.073-16.414 1.725 3.385 5.11 10.027 6.834 13.412C1786.608 518.603 1766.234 519.05 1762.913 507.937zM2186.121 485.136c-3.321-6.195-6.323-12.518-9.069-18.969 9.771-20.885 35.446-36.404 58.438-27.846 4.598 8.878 5.684 18.969 7.728 28.549 9.516-4.854 19.224-9.389 29.123-13.412 18.202 16.414 33.977 43.494 17.18 66.55-5.429-.383-16.35-1.086-21.778-1.469 3.129 10.985 11.624 21.97 8.558 33.594-13.731 18.202-37.809 21.204-58.694 16.35-1.469-8.558-2.874-17.18-4.279-25.802-8.047 3.576-15.903 7.472-24.27 10.282-21.076-10.027-27.654-36.66-22.417-57.8C2173.028 491.523 2179.543 488.202 2186.121 485.136zM2237.087 507.937c4.79-8.686-6.897-16.861-15.073-16.414-1.725 3.385-5.11 10.027-6.834 13.412C2213.392 518.603 2233.766 519.05 2237.087 507.937z" class="color010101 svgShape"/></svg></svg>